<svg width="59" height="59" viewBox="0 0 59 59" fill="none" xmlns="http://www.w3.org/2000/svg">
<g id="healthicons:money-bag">
<path id="Vector" fill-rule="evenodd" clip-rule="evenodd" d="M37.7967 7.79245C32.2446 7.79245 27.1865 9.62637 24.1935 11.1247C23.9231 11.2599 23.6711 11.3927 23.4364 11.5205C22.9717 11.7737 22.5759 12.0097 22.2613 12.2175L25.6661 17.23L27.2689 17.8679C33.5327 21.0281 41.9329 21.0281 48.1979 17.8679L50.0171 16.9239L53.2363 12.2175C52.5695 11.7824 51.8761 11.3895 51.1602 11.0411C48.1819 9.55877 43.2444 7.79245 37.7979 7.79245H37.7967ZM29.8784 13.4663C28.6728 13.2407 27.4819 12.9419 26.3126 12.5715C29.1163 11.3263 33.2943 10.005 37.7967 10.005C40.9151 10.005 43.8639 10.6392 46.3025 11.4431C43.4447 11.845 40.3952 12.5272 37.4894 13.3667C35.2032 14.028 32.531 13.9567 29.8784 13.4663ZM49.4959 19.6908L49.1936 19.8432C42.3028 23.3193 33.1628 23.3193 26.272 19.8432L25.9857 19.6982C15.6336 31.0569 7.73007 52.0388 37.7967 52.0388C67.8634 52.0388 59.7668 30.6648 49.4959 19.6908ZM36.5196 29.9175C35.8676 29.9175 35.2423 30.1765 34.7813 30.6375C34.3203 31.0985 34.0613 31.7238 34.0613 32.3758C34.0613 33.0278 34.3203 33.6531 34.7813 34.1141C35.2423 34.5751 35.8676 34.8341 36.5196 34.8341V29.9175ZM38.9779 27.4591V26.23H36.5196V27.4591C35.2156 27.4591 33.9651 27.9771 33.043 28.8992C32.121 29.8212 31.6029 31.0718 31.6029 32.3758C31.6029 33.6798 32.121 34.9303 33.043 35.8524C33.9651 36.7745 35.2156 37.2925 36.5196 37.2925V42.2091C35.4502 42.2091 34.5394 41.5269 34.2002 40.5706C34.1498 40.4142 34.0686 40.2694 33.9614 40.1449C33.8541 40.0204 33.723 39.9186 33.5757 39.8457C33.4284 39.7727 33.268 39.73 33.104 39.7201C32.9399 39.7103 32.7756 39.7334 32.6206 39.7881C32.4656 39.8429 32.3232 39.9281 32.2018 40.0389C32.0804 40.1496 31.9824 40.2836 31.9136 40.4329C31.8449 40.5822 31.8067 40.7437 31.8015 40.908C31.7963 41.0723 31.8241 41.2359 31.8832 41.3893C32.2222 42.348 32.8502 43.178 33.6805 43.7651C34.5108 44.3522 35.5027 44.6674 36.5196 44.6675V45.8966H38.9779V44.6675C40.2819 44.6675 41.5325 44.1495 42.4546 43.2274C43.3766 42.3053 43.8946 41.0548 43.8946 39.7508C43.8946 38.4468 43.3766 37.1962 42.4546 36.2742C41.5325 35.3521 40.2819 34.8341 38.9779 34.8341V29.9175C40.0473 29.9175 40.9581 30.5996 41.2974 31.5559C41.3477 31.7124 41.4289 31.8572 41.5362 31.9817C41.6434 32.1062 41.7746 32.208 41.9218 32.2809C42.0691 32.3539 42.2295 32.3966 42.3936 32.4064C42.5576 32.4163 42.722 32.3932 42.877 32.3385C43.0319 32.2837 43.1743 32.1984 43.2958 32.0877C43.4172 31.9769 43.5152 31.843 43.5839 31.6937C43.6527 31.5444 43.6908 31.3828 43.696 31.2186C43.7013 31.0543 43.6735 30.8907 43.6144 30.7373C43.2753 29.7786 42.6474 28.9486 41.8171 28.3615C40.9867 27.7744 39.9949 27.4591 38.9779 27.4591ZM38.9779 37.2925V42.2091C39.6299 42.2091 40.2552 41.9501 40.7162 41.4891C41.1773 41.0281 41.4363 40.4028 41.4363 39.7508C41.4363 39.0988 41.1773 38.4735 40.7162 38.0125C40.2552 37.5515 39.6299 37.2925 38.9779 37.2925Z" fill="black"/>
</g>
</svg>
