<svg width="61" height="60" viewBox="0 0 61 60" fill="none" xmlns="http://www.w3.org/2000/svg">
<g id="carbon:email">
<path id="Vector" d="M52.8893 11.25H7.77739C6.78036 11.25 5.82416 11.6451 5.11915 12.3483C4.41414 13.0516 4.01807 14.0054 4.01807 15V45C4.01807 45.9946 4.41414 46.9484 5.11915 47.6516C5.82416 48.3549 6.78036 48.75 7.77739 48.75H52.8893C53.8864 48.75 54.8426 48.3549 55.5476 47.6516C56.2526 46.9484 56.6487 45.9946 56.6487 45V15C56.6487 14.0054 56.2526 13.0516 55.5476 12.3483C54.8426 11.6451 53.8864 11.25 52.8893 11.25ZM48.7541 15L30.3334 27.7125L11.9127 15H48.7541ZM7.77739 45V16.7062L29.262 31.5375C29.5766 31.7552 29.9504 31.8719 30.3334 31.8719C30.7163 31.8719 31.0901 31.7552 31.4048 31.5375L52.8893 16.7062V45H7.77739Z" fill="white"/>
</g>
</svg>
