<svg width="57" height="57" viewBox="0 0 57 57" fill="none" xmlns="http://www.w3.org/2000/svg">
<g id="material-symbols:person-play">
<path id="Vector" d="M13.0623 29.45L3.7998 20.1875L13.0623 10.925L22.3248 20.1875L13.0623 29.45ZM21.3748 52.25V40.375C18.9602 40.1771 16.5654 39.8897 14.1904 39.5129C11.8154 39.136 9.46022 38.6317 7.1248 38L8.3123 33.25C11.6373 34.1604 14.9726 34.7842 18.3182 35.1215C21.6638 35.4588 25.0576 35.6266 28.4998 35.625C31.9436 35.625 35.3382 35.4564 38.6838 35.1191C42.0294 34.7819 45.3639 34.1588 48.6873 33.25L49.8748 38C47.5394 38.6333 45.1842 39.1384 42.8092 39.5153C40.4342 39.8921 38.0394 40.1787 35.6248 40.375V52.25H21.3748ZM28.4998 16.625C26.5206 16.625 24.8383 15.9323 23.4529 14.5469C22.0675 13.1615 21.3748 11.4792 21.3748 9.5C21.3748 7.52083 22.0675 5.83854 23.4529 4.45312C24.8383 3.06771 26.5206 2.375 28.4998 2.375C30.479 2.375 32.1613 3.06771 33.5467 4.45312C34.9321 5.83854 35.6248 7.52083 35.6248 9.5C35.6248 11.4792 34.9321 13.1615 33.5467 14.5469C32.1613 15.9323 30.479 16.625 28.4998 16.625ZM28.4998 33.25C27.1936 33.25 26.0749 32.7845 25.1439 31.8535C24.2129 30.9225 23.7482 29.8047 23.7498 28.5C23.7498 27.1938 24.2153 26.0751 25.1463 25.1441C26.0773 24.2131 27.1951 23.7484 28.4998 23.75C29.8061 23.75 30.9247 24.2155 31.8557 25.1465C32.7867 26.0775 33.2514 27.1953 33.2498 28.5C33.2498 29.8062 32.7843 30.9249 31.8533 31.8559C30.9223 32.7869 29.8045 33.2516 28.4998 33.25ZM40.4936 28.5L36.4561 21.375L40.4936 14.25H48.5686L52.6061 21.375L48.5686 28.5H40.4936Z" fill="black"/>
</g>
</svg>
