<svg width="46" height="46" viewBox="0 0 46 46" fill="none" xmlns="http://www.w3.org/2000/svg">
<g id="dashicons:admin-customizer">
<path id="Vector" d="M42.1592 8.211C42.1592 8.211 42.7802 6.371 41.4462 5.083C40.2272 3.887 38.6402 4.531 38.6402 4.531C37.2372 5.221 25.3922 12.512 20.9992 17.342C19.0212 19.55 16.2612 26.059 18.4922 28.428C20.6082 30.682 27.6002 28.037 29.5092 26.128C34.2472 21.39 41.4922 9.637 42.1592 8.211ZM3.22021 40.595C8.67121 37.007 6.57821 32.752 10.6492 29.923C12.7882 28.428 15.7552 28.497 17.7332 30.59C19.1822 32.131 19.5732 36.501 17.3652 38.548C13.7542 41.883 8.16522 42.113 3.22021 40.595Z" fill="black"/>
</g>
</svg>
