<svg width="61" height="60" viewBox="0 0 61 60" fill="none" xmlns="http://www.w3.org/2000/svg">
<g id="mdi:address-marker-outline">
<path id="Vector" d="M30.3336 16.25C31.9953 16.25 33.589 16.9085 34.764 18.0806C35.939 19.2527 36.5991 20.8424 36.5991 22.5C36.5991 23.3208 36.4371 24.1335 36.1222 24.8918C35.8073 25.6501 35.3458 26.3391 34.764 26.9194C34.1822 27.4998 33.4915 27.9602 32.7313 28.2742C31.9711 28.5883 31.1564 28.75 30.3336 28.75C28.6718 28.75 27.0782 28.0915 25.9032 26.9194C24.7281 25.7473 24.068 24.1576 24.068 22.5C24.068 20.8424 24.7281 19.2527 25.9032 18.0806C27.0782 16.9085 28.6718 16.25 30.3336 16.25ZM30.3336 5C34.9864 5 39.4487 6.84374 42.7387 10.1256C46.0288 13.4075 47.8771 17.8587 47.8771 22.5C47.8771 35.625 30.3336 55 30.3336 55C30.3336 55 12.79 35.625 12.79 22.5C12.79 17.8587 14.6384 13.4075 17.9284 10.1256C21.2185 6.84374 25.6807 5 30.3336 5ZM30.3336 10C27.0101 10 23.8228 11.317 21.4728 13.6612C19.1227 16.0054 17.8025 19.1848 17.8025 22.5C17.8025 25 17.8025 30 30.3336 46.775C42.8647 30 42.8647 25 42.8647 22.5C42.8647 19.1848 41.5444 16.0054 39.1944 13.6612C36.8444 11.317 33.657 10 30.3336 10Z" fill="white"/>
</g>
</svg>
