<svg width="61" height="60" viewBox="0 0 61 60" fill="none" xmlns="http://www.w3.org/2000/svg">
<g id="ph:phone">
<path id="Vector" d="M52.5063 37.1391L41.4375 32.1914L41.4069 32.1774C40.8323 31.9322 40.2054 31.8338 39.5831 31.8911C38.9607 31.9484 38.3625 32.1596 37.8426 32.5055C37.7814 32.5458 37.7225 32.5896 37.6664 32.6367L31.9475 37.5C28.3244 35.7445 24.5839 32.0414 22.8241 28.4742L27.7065 22.6828C27.7535 22.6242 27.7981 22.5656 27.8404 22.5024C28.1798 21.9851 28.3857 21.3922 28.4398 20.7764C28.4939 20.1605 28.3945 19.5409 28.1506 18.9727V18.9445L23.1765 7.88439C22.854 7.14204 22.2995 6.52364 21.5957 6.12151C20.8919 5.71938 20.0766 5.55508 19.2715 5.65314C16.0878 6.07105 13.1654 7.63072 11.0502 10.0409C8.93497 12.451 7.77161 15.5468 7.77737 18.75C7.77737 37.3594 22.9557 52.5 41.6113 52.5C44.8225 52.5058 47.926 51.3453 50.3421 49.2353C52.7583 47.1254 54.3218 44.2102 54.7408 41.0344C54.8393 40.2316 54.6749 39.4185 54.2722 38.7165C53.8695 38.0145 53.2501 37.4612 52.5063 37.1391ZM41.6113 48.75C33.6377 48.7413 25.9932 45.5778 20.355 39.9536C14.7168 34.3294 11.5454 26.7038 11.5367 18.75C11.5279 16.4613 12.3545 14.2477 13.8622 12.5225C15.3699 10.7972 17.4555 9.67845 19.7297 9.37501C19.7288 9.38437 19.7288 9.39379 19.7297 9.40314L24.6638 20.4188L19.8072 26.2172C19.7579 26.2738 19.7131 26.3341 19.6733 26.3977C19.3197 26.9389 19.1123 27.562 19.0711 28.2067C19.03 28.8514 19.1564 29.4958 19.4383 30.0774C21.5671 34.4203 25.9537 38.7633 30.3545 40.8844C30.9418 41.1629 31.5915 41.2848 32.2401 41.2379C32.8887 41.1911 33.5141 40.9772 34.0551 40.6172C34.1154 40.5767 34.1734 40.5328 34.2289 40.486L39.9408 35.625L50.9838 40.5586H51.0096C50.7092 42.8303 49.5893 44.915 47.8594 46.4227C46.1296 47.9304 43.9084 48.7577 41.6113 48.75Z" fill="white"/>
</g>
</svg>
