<svg width="30" height="31" viewBox="0 0 30 31" fill="none" xmlns="http://www.w3.org/2000/svg">
<path d="M28.5557 20.8032L21.4892 17.5371L21.4697 17.5278C21.1028 17.366 20.7026 17.301 20.3053 17.3389C19.908 17.3767 19.5261 17.5161 19.1942 17.7444C19.1551 17.7711 19.1175 17.8 19.0816 17.8311L15.4306 21.0415C13.1176 19.8826 10.7296 17.4381 9.60608 15.0833L12.7231 11.2601C12.7531 11.2215 12.7816 11.1828 12.8086 11.141C13.0252 10.7996 13.1567 10.4081 13.1912 10.0016C13.2258 9.5951 13.1624 9.18607 13.0066 8.81094V8.79238L9.83108 1.49118C9.62519 1.00113 9.27117 0.592903 8.82186 0.327442C8.37255 0.0619798 7.85205 -0.0464799 7.33807 0.0182532C5.30551 0.294128 3.43981 1.32372 2.08943 2.91474C0.73905 4.50576 -0.00366142 6.5494 1.35731e-05 8.66396C1.35731e-05 20.9487 9.69008 30.9435 21.6002 30.9435C23.6502 30.9473 25.6316 30.1812 27.1741 28.7884C28.7166 27.3955 29.7148 25.4711 29.9822 23.3747C30.0451 22.8447 29.9402 22.308 29.6831 21.8445C29.426 21.3811 29.0305 21.0158 28.5557 20.8032ZM21.6002 28.468C16.5097 28.4623 11.6293 26.3739 8.02976 22.6612C4.43024 18.9485 2.40559 13.9146 2.40003 8.66396C2.39439 7.15311 2.92211 5.6918 3.88465 4.55293C4.84718 3.41406 6.17871 2.6755 7.63057 2.47519C7.62998 2.48137 7.62998 2.48759 7.63057 2.49376L10.7806 9.76556L7.68007 13.5933C7.6486 13.6307 7.62001 13.6705 7.59457 13.7124C7.36884 14.0697 7.23642 14.4811 7.21014 14.9067C7.18386 15.3322 7.26461 15.7576 7.44457 16.1415C8.80358 19.0085 11.6041 21.8754 14.4136 23.2756C14.7886 23.4595 15.2033 23.5399 15.6174 23.509C16.0315 23.4781 16.4308 23.3369 16.7761 23.0993C16.8146 23.0725 16.8517 23.0436 16.8871 23.0126L20.5337 19.8037L27.5837 23.0606H27.6002C27.4084 24.5602 26.6934 25.9364 25.5891 26.9317C24.4847 27.9269 23.0667 28.4731 21.6002 28.468Z" fill="white"/>
</svg>
